<svg xmlns="http://www.w3.org/2000/svg" version="1.1" xmlns:xlink="http://www.w3.org/1999/xlink" xmlns:svgjs="http://svgjs.dev/svgjs" width="1500" height="1500" viewBox="0 0 1500 1500"><g transform="matrix(1,0,0,1,-0.21332335329316265,-0.21332335329350371)"><svg viewBox="0 0 334 334" data-background-color="#ffffff" preserveAspectRatio="xMidYMid meet" height="1500" width="1500" xmlns="http://www.w3.org/2000/svg" xmlns:xlink="http://www.w3.org/1999/xlink"><g id="tight-bounds" transform="matrix(1,0,0,1,0.04749999999998522,0.04750000000001364)"><svg viewBox="0 0 333.90454557049503 333.90454557049503" height="333.90454557049503" width="333.90454557049503"><rect width="333.905" height="333.905" fill="url(#bbc2ffb0-dccf-426d-81fb-4dfc43363087)" mask="url(#05c42da2-9b1d-419f-90f4-bf2f5778622a)" data-fill-palette-color="tertiary"></rect><g><svg></svg></g><g><svg viewBox="0 0 333.90454557049503 333.90454557049503" height="333.90454557049503" width="333.90454557049503"><g><path d="M0 166.952c0-92.205 74.747-166.952 166.952-166.952 92.205 0 166.952 74.747 166.953 166.952 0 92.205-74.747 166.952-166.953 166.953-92.205 0-166.952-74.747-166.952-166.953zM166.952 316.63c82.665 0 149.677-67.013 149.678-149.678 0-82.665-67.013-149.677-149.678-149.677-82.665 0-149.677 67.013-149.677 149.677 0 82.665 67.013 149.677 149.677 149.678z" data-fill-palette-color="tertiary" fill="url(#bbc2ffb0-dccf-426d-81fb-4dfc43363087)" stroke="transparent"></path><ellipse rx="160.27418187383762" ry="160.27418187383762" cx="166.95227278524752" cy="166.95227278524752" fill="url(#bbc2ffb0-dccf-426d-81fb-4dfc43363087)" stroke="transparent" stroke-width="0" fill-opacity="1" data-fill-palette-color="tertiary"></ellipse></g><g transform="matrix(1,0,0,1,95.67787514803278,71.17305217166896)"><svg viewBox="0 0 142.54879527442947 191.55844122715712" height="191.55844122715712" width="142.54879527442947"><g><svg viewBox="0 0 142.54879527442947 191.55844122715712" height="191.55844122715712" width="142.54879527442947"><g><svg viewBox="0 0 142.54879527442947 191.55844122715712" height="191.55844122715712" width="142.54879527442947"><g><svg viewBox="0 0 142.54879527442947 191.55844122715712" height="191.55844122715712" width="142.54879527442947"><g id="textblocktransform"><svg viewBox="0 0 142.54879527442947 191.55844122715712" height="191.55844122715712" width="142.54879527442947" id="textblock"><g><svg viewBox="0 0 142.54879527442947 191.55844122715712" height="191.55844122715712" width="142.54879527442947"><g transform="matrix(1,0,0,1,0,0)"><svg width="142.54879527442947" viewBox="0.2 -49.56 56.598466458320615 64.26" height="191.55844122715712" data-palette-color="#000000"><g transform="matrix(1,0,0,1,0,0)"><g><svg width="2.2723109722137447" viewBox="3.16 -36.36 7.6899999999999995 36.36" height="10.74755859375" data-palette-color="#000000" id="scriptelement" x="54.52615548610687" y="-10.74755859375"><path d="M3.16-36.36L10.85-36.36 10.85 0 3.16 0 3.16-36.36Z" opacity="1" transform="matrix(1,0,0,1,0,0)" fill="#000000" class="undefined-123" data-fill-palette-color="quaternary" id="yy-123"></path></svg></g></g><path d="M8.15-22.8L8.15-22.8Q8.15-24.29 8.98-24.29L8.98-24.29Q9.47-24.29 9.62-24.15 9.77-24 10.17-23.69 10.57-23.39 12.46-23.39 14.36-23.39 16.39-24.46 18.43-25.54 19.92-27.34L19.92-27.34Q23.05-31.18 23.05-36.45L23.05-36.45Q23.05-40.55 21.06-43.4 19.07-46.24 15.84-46.24L15.84-46.24Q13.28-46.24 11.94-45.85L11.94-45.85 2.71-0.76Q2.44 0.1 1.32 0.1 0.2 0.1 0.2-0.71L0.2-0.71Q0.2-0.93 0.27-1.21 0.34-1.49 0.56-2.59L0.56-2.59Q1.1-5.35 4.21-20.2 7.32-35.06 9.5-44.7L9.5-44.7Q8.76-44.24 7.74-43.31L7.74-43.31Q7.69-42.77 7.23-42.38 6.76-41.99 6.15-41.99L6.15-41.99 5.54-42.14Q4.86-42.46 4.86-43.16L4.86-43.16Q4.86-44.53 6.46-45.69 8.06-46.85 10.45-47.46L10.45-47.46Q11.33-49.56 12.06-49.56L12.06-49.56Q12.65-49.56 12.94-47.9L12.94-47.9Q13.99-48.05 14.94-48.05L14.94-48.05Q20.19-48.05 22.88-44.34L22.88-44.34Q25.1-41.26 25.1-36.21L25.1-36.21Q25.1-29.71 21.28-25.38 17.46-21.04 10.6-21.04L10.6-21.04Q10.6-12.7 13.43-4.76L13.43-4.76Q16.72 4.59 23.44 9.03L23.44 9.03Q28.56 12.45 35.52 12.45 42.48 12.45 48.24 7.76L48.24 7.76Q49.98 6.32 51.86 4.64L51.86 4.64Q52.05 4.44 52.49 4.44L52.49 4.44Q53.39 4.44 53.39 5.35L53.39 5.35Q53.39 5.86 53 6.35L53 6.35Q49.29 10.18 45.75 12.08L45.75 12.08Q40.92 14.7 34.83 14.7 28.74 14.7 23 11.18L23 11.18Q12.65 4.79 9.35-10.35L9.35-10.35Q8.15-15.84 8.15-22.8ZM36.69 0.34L24.05-0.05Q23.8 0.05 23.54 0.05 23.29 0.05 23.07-0.28 22.85-0.61 22.85-1.35 22.85-2.1 23.58-3.25 24.31-4.39 24.58-5.53 24.85-6.67 25.9-10.33 26.95-13.99 27.85-18.92 28.76-23.85 30.54-32.14 32.32-40.43 33.59-46.66L33.59-46.66Q33.74-47.14 34.18-47.5 34.62-47.85 35.03-47.85L35.03-47.85Q35.69-47.85 35.89-47L35.89-47Q34.76-42.04 32.74-31.6 30.71-21.17 29.81-17.43 28.9-13.7 28.16-9.89 27.41-6.08 26.39-2.71L26.39-2.71Q31.71-1.81 35.03-1.81L35.03-1.81 36.08-1.81 40.48-2Q41.4-2 43.75-2.29L43.75-2.29Q44.6-2.08 44.6-1.44L44.6-1.44Q44.6-1.03 44.24-0.59 43.87-0.15 43.38 0L43.38 0Q39.91 0.34 36.69 0.34L36.69 0.34Z" opacity="1" transform="matrix(1,0,0,1,0,0)" fill="#000000" class="wordmark-text-0" data-fill-palette-color="quaternary" id="text-0"></path></svg></g></svg></g></svg></g></svg></g></svg></g></svg></g></svg></g></svg></g><defs></defs><mask id="05c42da2-9b1d-419f-90f4-bf2f5778622a"><g id="SvgjsG7307"><svg viewBox="0 0 333.90454557049503 333.90454557049503" height="333.90454557049503" width="333.90454557049503"><g><svg></svg></g><g><svg viewBox="0 0 333.90454557049503 333.90454557049503" height="333.90454557049503" width="333.90454557049503"><g><path d="M0 166.952c0-92.205 74.747-166.952 166.952-166.952 92.205 0 166.952 74.747 166.953 166.952 0 92.205-74.747 166.952-166.953 166.953-92.205 0-166.952-74.747-166.952-166.953zM166.952 316.63c82.665 0 149.677-67.013 149.678-149.678 0-82.665-67.013-149.677-149.678-149.677-82.665 0-149.677 67.013-149.677 149.677 0 82.665 67.013 149.677 149.677 149.678z" fill="white" stroke="transparent"></path><ellipse rx="160.27418187383762" ry="160.27418187383762" cx="166.95227278524752" cy="166.95227278524752" fill="white" stroke="transparent" stroke-width="0" fill-opacity="1"></ellipse></g><g transform="matrix(1,0,0,1,95.67787514803278,71.17305217166896)"><svg viewBox="0 0 142.54879527442947 191.55844122715712" height="191.55844122715712" width="142.54879527442947"><g><svg viewBox="0 0 142.54879527442947 191.55844122715712" height="191.55844122715712" width="142.54879527442947"><g><svg viewBox="0 0 142.54879527442947 191.55844122715712" height="191.55844122715712" width="142.54879527442947"><g><svg viewBox="0 0 142.54879527442947 191.55844122715712" height="191.55844122715712" width="142.54879527442947"><g id="SvgjsG7306"><svg viewBox="0 0 142.54879527442947 191.55844122715712" height="191.55844122715712" width="142.54879527442947" id="SvgjsSvg7305"><g><svg viewBox="0 0 142.54879527442947 191.55844122715712" height="191.55844122715712" width="142.54879527442947"><g transform="matrix(1,0,0,1,0,0)"><svg width="142.54879527442947" viewBox="0.2 -49.56 56.598466458320615 64.26" height="191.55844122715712" data-palette-color="#000000"><g transform="matrix(1,0,0,1,0,0)"><g><svg width="2.2723109722137447" viewBox="3.16 -36.36 7.6899999999999995 36.36" height="10.74755859375" data-palette-color="#000000" id="SvgjsSvg7304" x="54.52615548610687" y="-10.74755859375"><path d="M3.16-36.36L10.85-36.36 10.85 0 3.16 0 3.16-36.36Z" opacity="1" transform="matrix(1,0,0,1,0,0)" fill="black" class="undefined-123" id="SvgjsPath7303"></path></svg></g></g><path d="M8.15-22.8L8.15-22.8Q8.15-24.29 8.98-24.29L8.98-24.29Q9.47-24.29 9.62-24.15 9.77-24 10.17-23.69 10.57-23.39 12.46-23.39 14.36-23.39 16.39-24.46 18.43-25.54 19.92-27.34L19.92-27.34Q23.05-31.18 23.05-36.45L23.05-36.45Q23.05-40.55 21.06-43.4 19.07-46.24 15.84-46.24L15.84-46.24Q13.28-46.24 11.94-45.85L11.94-45.85 2.71-0.76Q2.44 0.1 1.32 0.1 0.2 0.1 0.2-0.71L0.2-0.71Q0.2-0.93 0.27-1.21 0.34-1.49 0.56-2.59L0.56-2.59Q1.1-5.35 4.21-20.2 7.32-35.06 9.5-44.7L9.5-44.7Q8.76-44.24 7.74-43.31L7.74-43.31Q7.69-42.77 7.23-42.38 6.76-41.99 6.15-41.99L6.15-41.99 5.54-42.14Q4.86-42.46 4.86-43.16L4.86-43.16Q4.86-44.53 6.46-45.69 8.06-46.85 10.45-47.46L10.45-47.46Q11.33-49.56 12.06-49.56L12.06-49.56Q12.65-49.56 12.94-47.9L12.94-47.9Q13.99-48.05 14.94-48.05L14.94-48.05Q20.19-48.05 22.88-44.34L22.88-44.34Q25.1-41.26 25.1-36.21L25.1-36.21Q25.1-29.71 21.28-25.38 17.46-21.04 10.6-21.04L10.6-21.04Q10.6-12.7 13.43-4.76L13.43-4.76Q16.72 4.59 23.44 9.03L23.44 9.03Q28.56 12.45 35.52 12.45 42.48 12.45 48.24 7.76L48.24 7.76Q49.98 6.32 51.86 4.64L51.86 4.64Q52.05 4.44 52.49 4.44L52.49 4.44Q53.39 4.44 53.39 5.35L53.39 5.35Q53.39 5.86 53 6.35L53 6.35Q49.29 10.18 45.75 12.08L45.75 12.08Q40.92 14.7 34.83 14.7 28.74 14.7 23 11.18L23 11.18Q12.65 4.79 9.35-10.35L9.35-10.35Q8.15-15.84 8.15-22.8ZM36.69 0.34L24.05-0.05Q23.8 0.05 23.54 0.05 23.29 0.05 23.07-0.28 22.85-0.61 22.85-1.35 22.85-2.1 23.58-3.25 24.31-4.39 24.58-5.53 24.85-6.67 25.9-10.33 26.95-13.99 27.85-18.92 28.76-23.85 30.54-32.14 32.32-40.43 33.59-46.66L33.59-46.66Q33.74-47.14 34.18-47.5 34.62-47.85 35.03-47.85L35.03-47.85Q35.69-47.85 35.89-47L35.89-47Q34.76-42.04 32.74-31.6 30.71-21.17 29.81-17.43 28.9-13.7 28.16-9.89 27.41-6.08 26.39-2.71L26.39-2.71Q31.71-1.81 35.03-1.81L35.03-1.81 36.08-1.81 40.48-2Q41.4-2 43.75-2.29L43.75-2.29Q44.6-2.08 44.6-1.44L44.6-1.44Q44.6-1.03 44.24-0.59 43.87-0.15 43.38 0L43.38 0Q39.91 0.34 36.69 0.34L36.69 0.34Z" opacity="1" transform="matrix(1,0,0,1,0,0)" fill="black" class="wordmark-text-0" id="SvgjsPath7302"></path></svg></g></svg></g></svg></g></svg></g></svg></g></svg></g></svg></g></svg></g><defs><mask></mask></defs></svg><rect width="333.90454557049503" height="333.90454557049503" fill="black" stroke="none" visibility="hidden"></rect></g></mask><linearGradient x1="0.054" x2="0.941" y1="0.5" y2="0.5" id="bbc2ffb0-dccf-426d-81fb-4dfc43363087"><stop stop-color="#9c7945" offset="0"></stop><stop stop-color="#faf3aa" offset="0.498"></stop><stop stop-color="#9c7945" offset="1"></stop></linearGradient></svg><rect width="333.90454557049503" height="333.90454557049503" fill="none" stroke="none" visibility="hidden"></rect></g></svg></g></svg>